<!-- icon666.com - MILLIONS vector ICONS FREE --><svg id="Layer_1" viewBox="0 0 512 512" xmlns="http://www.w3.org/2000/svg" data-name="Layer 1"><path d="m313.109 78.5a81.572 81.572 0 0 0 -65.04 3.98l-144.4 71.1-34.18-23.63a40.787 40.787 0 0 0 -38.219-4.37l-15.27 6.044 59.649 48.421a41.248 41.248 0 0 0 27.13 9.369 20.993 20.993 0 0 0 7.27-1.319l203.461-80.55a15.54 15.54 0 0 0 -.4-29.05z" fill="#50a6ea"></path><path d="m313.109 78.5a81.575 81.575 0 0 0 -65.04 3.98l-144.4 71.1-34.179-23.635a40.789 40.789 0 0 0 -38.22-4.37l-15.27 6.049 14.9 12.1.369-.146a40.789 40.789 0 0 1 38.22 4.37l34.179 23.63 144.4-71.1a81.575 81.575 0 0 1 65.04-3.98 15.279 15.279 0 0 1 7.405 5.6 15.611 15.611 0 0 0 2.817-8.998 15.291 15.291 0 0 0 -10.221-14.6z" fill="#72bcef"></path><path d="m495.85 252.205a72 72 0 0 1 -4.34 29.49 77.577 77.577 0 0 1 -16.62 26.36l-51.61 54.98-51.61-54.98a77.577 77.577 0 0 1 -16.62-26.36 72 72 0 0 1 -4.34-29.49c2.47-36.97 32-69.71 72.57-69.71s70.1 32.74 72.57 69.71z" fill="#49c160"></path><path d="m391.669 308.055a77.617 77.617 0 0 1 -16.62-26.36 72.039 72.039 0 0 1 -4.34-29.491c2.262-33.855 27.225-64.145 62.571-69.011a73.307 73.307 0 0 0 -10-.7c-40.571 0-70.1 32.74-72.571 69.71a72.039 72.039 0 0 0 4.34 29.491 77.617 77.617 0 0 0 16.62 26.36l51.611 54.98 10-10.653z" fill="#8be89b"></path><path d="m423.28 219.325c17.21 0 31.17 14.33 31.17 32.01s-13.96 32-31.17 32-31.17-14.33-31.17-32 13.96-32.01 31.17-32.01z" fill="#33a045"></path><path d="m207.39 102.495v.01l-39.75 19.57-53.62-34.56 19.79-12.05z" fill="#4499d3"></path><path d="m239.19 126.245-8.05 13.91-56.53 97.62h-31.94l27.45-72.62 5.18-13.69z" fill="#4499d3"></path><path d="m398.383 416.289a5.971 5.971 0 0 1 -2.562-.577l-260.973-123.448a6 6 0 1 1 5.131-10.848l260.973 123.449a6 6 0 0 1 -2.569 11.424z" fill="#ccd3df"></path><path d="m138.5 279.255a21.66 21.66 0 1 1 -21.66-21.65 21.663 21.663 0 0 1 21.66 21.65z" fill="#fadf4a"></path><path d="m420.04 395.125a21.66 21.66 0 1 1 -21.65 21.66 21.657 21.657 0 0 1 21.65-21.66z" fill="#c24e38"></path></svg>